<?xml version="1.0" encoding="UTF-8" standalone="no"?>
<svg
   xmlns:osb="http://www.openswatchbook.org/uri/2009/osb"
   xmlns:dc="http://purl.org/dc/elements/1.1/"
   xmlns:cc="http://creativecommons.org/ns#"
   xmlns:rdf="http://www.w3.org/1999/02/22-rdf-syntax-ns#"
   xmlns:svg="http://www.w3.org/2000/svg"
   xmlns="http://www.w3.org/2000/svg"
   xmlns:xlink="http://www.w3.org/1999/xlink"
   xmlns:sodipodi="http://sodipodi.sourceforge.net/DTD/sodipodi-0.dtd"
   xmlns:inkscape="http://www.inkscape.org/namespaces/inkscape"
   viewBox="0 0 128 128"
   version="1.1"
   id="svg6"
   sodipodi:docname="icon.svg"
   inkscape:version="0.92.5 (2060ec1f9f, 2020-04-08)">
  <metadata
     id="metadata12">
    <rdf:RDF>
      <cc:Work
         rdf:about="">
        <dc:format>image/svg+xml</dc:format>
        <dc:type
           rdf:resource="http://purl.org/dc/dcmitype/StillImage" />
        <dc:title></dc:title>
      </cc:Work>
    </rdf:RDF>
  </metadata>
  <defs
     id="defs10">
    <linearGradient
       inkscape:collect="always"
       id="linearGradient2481">
      <stop
         style="stop-color:#ac9d93;stop-opacity:1;"
         offset="0"
         id="stop2477" />
      <stop
         style="stop-color:#ac9d93;stop-opacity:0;"
         offset="1"
         id="stop2479" />
    </linearGradient>
    <linearGradient
       inkscape:collect="always"
       id="linearGradient2465">
      <stop
         style="stop-color:#000000;stop-opacity:1;"
         offset="0"
         id="stop2461" />
      <stop
         style="stop-color:#000000;stop-opacity:0;"
         offset="1"
         id="stop2463" />
    </linearGradient>
    <linearGradient
       id="linearGradient2389"
       osb:paint="solid">
      <stop
         style="stop-color:#fff6d5;stop-opacity:1;"
         offset="0"
         id="stop2387" />
    </linearGradient>
    <linearGradient
       id="linearGradient2337"
       osb:paint="solid">
      <stop
         style="stop-color:#de8787;stop-opacity:1;"
         offset="0"
         id="stop2335" />
    </linearGradient>
    <linearGradient
       id="linearGradient6006"
       osb:paint="solid">
      <stop
         style="stop-color:#000000;stop-opacity:1;"
         offset="0"
         id="stop6004" />
    </linearGradient>
    <linearGradient
       inkscape:collect="always"
       xlink:href="#linearGradient2465"
       id="linearGradient2467"
       x1="-0.44800002"
       y1="63.999999"
       x2="128.10924"
       y2="63.999999"
       gradientUnits="userSpaceOnUse" />
    <linearGradient
       inkscape:collect="always"
       xlink:href="#linearGradient2481"
       id="linearGradient2483"
       x1="-44.871319"
       y1="51.598591"
       x2="82.793194"
       y2="51.598591"
       gradientUnits="userSpaceOnUse"
       gradientTransform="translate(44.871319,12.847771)" />
  </defs>
  <sodipodi:namedview
     pagecolor="#ffffff"
     bordercolor="#666666"
     borderopacity="1"
     objecttolerance="10"
     gridtolerance="10"
     guidetolerance="10"
     inkscape:pageopacity="0"
     inkscape:pageshadow="2"
     inkscape:window-width="1920"
     inkscape:window-height="1015"
     id="namedview8"
     showgrid="false"
     inkscape:zoom="5.2149125"
     inkscape:cx="92.201291"
     inkscape:cy="46.336787"
     inkscape:window-x="0"
     inkscape:window-y="0"
     inkscape:window-maximized="1"
     inkscape:current-layer="svg6" />
  <rect
     y="0.44636038"
     x="-0.0016373204"
     height="127.10728"
     width="127.66451"
     id="rect2459"
     style="fill:#cccccc;fill-opacity:1;stroke:url(#linearGradient2467);stroke-width:0.89272541;stroke-linecap:round;stroke-linejoin:round;stroke-miterlimit:0;stroke-dasharray:none;stroke-opacity:1;paint-order:stroke fill markers" />
  <rect
     style="fill:url(#linearGradient2483);fill-opacity:1;stroke:none;stroke-width:0.1;stroke-linecap:round;stroke-linejoin:round;stroke-miterlimit:0;stroke-dasharray:none;stroke-opacity:1;paint-order:stroke fill markers"
     id="rect839"
     width="127.66451"
     height="127.10728"
     x="0"
     y="0.89272308" />
  <text
     xml:space="preserve"
     style="font-style:normal;font-weight:normal;font-size:40px;line-height:1.25;font-family:sans-serif;letter-spacing:0px;word-spacing:0px;fill:#000000;fill-opacity:1;stroke:none"
     x="14.573591"
     y="24.067287"
     id="text3719"><tspan
       sodipodi:role="line"
       x="14.573591"
       y="59.457912"
       id="tspan3721" /></text>
  <path
     d="m 88.464007,82.17755 c 1.433528,1.185543 3.114253,1.691116 4.928566,1.784716 0.750367,0.03918 1.522328,0.0026 2.260689,-0.131997 1.171149,-0.212793 2.339094,-0.479981 3.478225,-0.823163 2.319893,-0.699966 4.324593,-1.909509 5.821333,-3.863015 0.85275,-1.113546 1.55273,-2.317488 2.00229,-3.648624 0.3712,-1.098348 0.71997,-2.207894 0.99757,-3.33184 0.21917,-0.885556 0.32797,-1.799913 0.46076,-2.704668 0.0888,-0.598373 0.14241,-1.203144 0.1976,-1.807114 0.0897,-0.979953 0.18319,-1.958306 0.24798,-2.940658 0.0457,-0.683167 0.044,-1.369533 0.0703,-2.053501 0.01,-0.208791 0.0424,-0.415982 0.0625,-0.623171 0.0167,-0.192789 0.11434,-0.259187 0.31119,-0.255987 0.69117,0.01037 1.38394,0.02799 2.07429,-0.0032 0.77358,-0.0344 1.55272,-0.068 2.31429,-0.195188 1.08315,-0.181591 2.1607,-0.41118 3.22224,-0.687967 1.25433,-0.328785 2.4055,-0.916756 3.51423,-1.585524 1.28953,-0.779963 2.46708,-1.694318 3.41982,-2.87266 0.83116,-1.025551 1.22475,-2.214294 1.02395,-3.511032 -0.29119,-1.883909 -1.8743,-3.118251 -3.71501,-3.202248 -0.66716,-0.03039 -1.34392,0.03999 -2.00789,0.123998 -0.80395,0.102387 -1.59593,0.283186 -2.39747,0.402379 -0.5536,0.08319 -1.11436,0.119991 -1.66634,0.177592 l -0.0152,-0.07198 c 1.03194,-1.949507 2.10708,-3.876616 3.08305,-5.85252 0.74955,-1.516728 1.38952,-3.087051 2.0511,-4.646976 1.09593,-2.582275 1.97029,-5.243748 2.69505,-7.950017 0.69356,-2.590277 1.28715,-5.208549 1.47514,-7.896422 0.0752,-1.072749 0.12719,-2.150296 0.11992,-3.224643 -0.005,-0.857559 -0.0977,-1.715918 -0.18319,-2.570276 -0.0978,-0.979152 -0.39358,-1.907107 -0.80317,-2.799863 -0.53914,-1.177539 -1.3767,-2.143092 -2.25745,-3.059848 -0.70468,-0.734365 -1.48065,-1.403131 -2.24942,-2.071901 -1.09673,-0.9535941 -2.33027,-1.715958 -3.61021,-2.391925 -1.45514,-0.7679632 -2.98385,-1.3695343 -4.57897,-1.7759148 -0.96475,-0.2455884 -1.95031,-0.4623779 -2.92626,-0.6567685 -0.34879,-0.070398 -0.70077,-0.249588 -1.05196,-0.249588 h -6.61407 c -0.239188,0 -0.475976,0.1567923 -0.716771,0.1831912 -1.583124,0.1767915 -3.147852,0.4919764 -4.667779,0.9639537 -0.567971,0.1751916 -1.086341,0.072796 -1.626321,0.022398 C 92.794171,6.3371768 92.386998,6.2307826 91.972621,6.2099836 90.395887,6.1315865 88.817566,6.0179928 87.240042,6.0347919 85.729714,6.0507919 84.234586,6.3003792 82.773056,6.7147591 81.549928,7.0635425 80.352387,7.4867223 79.25484,8.1306911 78.786062,8.4058783 78.413281,8.3538805 77.927703,8.214688 76.294994,7.7435335 74.651871,7.3019547 72.99515,6.9315723 71.962401,6.7003835 70.899252,6.5835888 69.844104,6.4747943 68.832152,6.3691993 67.814602,6.3068024 66.79705,6.2852033 c -0.993552,-0.0216 -1.993503,-0.020799 -2.983057,0.067196 -1.575122,0.1399931 -3.119849,0.4599779 -4.622177,0.976753 -1.66792,0.5743725 -3.197446,1.4055324 -4.575781,2.4966806 -1.39993,1.1079471 -2.523078,2.4590811 -3.424634,4.0038061 -0.951153,1.629522 -1.604723,3.374238 -2.009502,5.205347 -0.21999,0.992754 -0.1392,2.013505 -0.290386,3.021455 -0.0464,0.311985 0.04719,0.62557 0.04719,0.939156 v 4.387789 c 0,0.291185 -0.08561,0.583172 -0.04881,0.875956 0.09039,0.703167 0.05919,1.411932 0.178391,2.1103 0.187191,1.105547 0.355983,2.207093 0.583172,3.30464 0.317585,1.533528 0.620769,3.065452 0.972753,4.591778 0.255987,1.111149 0.533574,2.215896 0.83836,3.314242 0.463976,1.678321 0.916755,3.359037 1.442331,5.01736 0.488776,1.541524 1.045548,3.06065 1.601521,4.580578 0.769564,2.102299 1.68792,4.136602 2.791866,6.085308 0.955955,1.688719 2.046302,3.270242 3.510232,4.57018 0.965552,0.857558 2.038302,1.515927 3.287041,1.84551 0.982351,0.257588 1.982305,0.288788 2.986257,0.08319 1.165544,-0.238387 2.198295,-0.740764 3.115849,-1.491928 0.105597,-0.08561 0.219989,-0.15199 0.345584,0.0064 0.475179,0.60157 1.110348,1.003153 1.775114,1.349536 1.793515,0.935954 3.747819,1.216741 5.732525,1.330334 0.481577,0.0272 0.966354,-0.04161 1.45033,-0.05441 0.944756,-0.0264 1.861511,-0.210391 2.763069,-0.471177 0.473576,-0.136799 0.935153,-0.311187 1.41673,-0.472777 0.0248,0.512774 0.05681,1.00555 0.07279,1.499128 l 0.06638,2.69027 c 0.01285,0.409579 0.0288,0.819161 0.06638,1.227141 0.0976,1.051148 0.192791,2.102299 0.318383,3.150247 0.0864,0.722366 0.177593,1.44953 0.347186,2.155097 0.342382,1.422332 0.80476,2.807065 1.393532,4.1502 0.576772,1.316737 1.407933,2.429484 2.518279,3.34704 z M 85.591346,68.763795 c -0.05681,-1.263139 -0.0992,-2.527078 -0.127194,-3.791017 -0.03359,-1.553525 -0.04481,-3.107849 -0.06638,-4.661375 l -0.004,-0.05919 c -0.789562,0.474376 -1.567926,0.992751 -2.391086,1.420731 -0.965553,0.501576 -2.013501,0.791961 -3.09905,0.874357 -0.850359,0.06399 -1.713517,0.122393 -2.559878,0.0552 -1.388731,-0.112802 -2.777466,-0.329584 -4.020605,-1.014352 -0.503976,-0.277587 -1.030351,-0.615971 -1.378334,-1.058348 -0.832761,-1.063151 -0.43358,-2.406285 0.822361,-3.052654 0.867958,-0.447979 1.815112,-0.63437 2.755865,-0.85196 0.816761,-0.18879 1.631124,-0.40398 2.428684,-0.663968 0.788762,-0.258387 1.286339,-0.898357 1.778316,-1.526327 l 0.779161,-1.00155 -0.936754,-0.0976 c -0.929555,-0.08639 -1.816714,-0.343184 -2.664674,-0.719166 -0.724763,-0.320783 -0.735963,-0.355982 -1.268738,0.221589 -0.887956,0.963954 -1.751915,1.951907 -2.623074,2.932659 -0.640769,0.721566 -1.276739,1.44713 -1.915906,2.171096 -0.630371,0.715964 -1.222341,1.471931 -1.903108,2.137498 -1.009554,0.988751 -2.227093,1.583123 -3.679824,1.515926 -0.931917,-0.04319 -1.784676,-0.36957 -2.552637,-0.903145 -1.583125,-1.102347 -2.649475,-2.646273 -3.621426,-4.266195 -1.243941,-2.076699 -2.199895,-4.288593 -3.016656,-6.560484 -0.565572,-1.571124 -1.134345,-3.143048 -1.627123,-4.736572 -0.536773,-1.731917 -1.00795,-3.483832 -1.471128,-5.237347 -0.350383,-1.322337 -0.660768,-2.655873 -0.956754,-3.991808 -0.336782,-1.519128 -0.659968,-3.042254 -0.945554,-4.571781 -0.19279,-1.03275 -0.303985,-2.080701 -0.459979,-3.11985 -0.210388,-1.402332 -0.248787,-2.815863 -0.171991,-4.222995 0.068,-1.26794 0.249588,-2.53188 0.43038,-3.791017 0.250388,-1.742318 0.82476,-3.386238 1.650322,-4.938963 0.506372,-0.951154 1.132744,-1.815913 1.858309,-2.619074 1.191942,-1.319136 2.634272,-2.27189 4.238996,-2.9878561 1.120745,-0.4999763 2.30549,-0.7999614 3.51263,-1.0359501 1.791914,-0.3487836 3.599829,-0.3343838 5.40774,-0.2975856 0.790361,0.016799 1.578324,0.1599919 2.367885,0.2391881 1.700719,0.168792 3.36704,0.5271754 5.012559,0.9679526 1.199945,0.321585 2.375087,0.7391651 3.56383,1.1007481 0.1184,0.036 0.293585,0.0328 0.391981,-0.0304 1.611921,-1.0527501 3.372637,-1.7471169 5.246947,-2.1446973 0.711166,-0.1503929 1.44553,-0.2167897 2.172696,-0.2631878 0.883157,-0.055195 1.775114,-0.1079958 2.656666,-0.055998 1.059955,0.060795 2.116699,0.2167897 3.17026,0.360783 0.511976,0.070399 1.011149,0.2471883 1.523124,0.295186 0.246391,0.023202 0.506377,-0.1551928 0.765556,-0.2159899 1.323139,-0.3063848 2.640679,-0.6463691 3.975813,-0.8871569 0.993562,-0.1791918 2.009496,-0.2639877 3.019056,-0.3215845 1.12794,-0.064799 2.26227,-0.111995 3.38862,-0.057594 1.42394,0.068794 2.83747,0.2711863 4.2326,0.595971 1.72952,0.4023803 3.38703,0.9863527 4.96378,1.7975133 1.17833,0.6071701 2.29747,1.3095371 3.30623,2.1734961 0.66077,0.567172 1.33753,1.126344 1.93349,1.758313 0.73598,0.779163 1.48632,1.557526 1.9487,2.555078 0.34798,0.752763 0.59597,1.531925 0.66476,2.355087 0.0847,1.024748 0.188,2.052701 0.17919,3.079052 -0.01,0.980753 -0.14319,1.960705 -0.23758,2.939857 -0.21678,2.230294 -0.70077,4.412589 -1.29032,6.566084 -0.48559,1.778314 -1.05515,3.53743 -1.67112,5.276547 -0.56717,1.602321 -1.22233,3.175047 -1.88391,4.742172 -0.48877,1.158342 -1.01595,2.304689 -1.58714,3.424635 -1.08313,2.121497 -2.20947,4.221397 -3.51261,6.2213 -0.22479,0.344783 -0.43838,0.698367 -0.65756,1.051149 0.56878,0.383182 1.21273,0.518376 1.8607,0.588771 0.61678,0.06638 1.24555,0.107196 1.86151,0.0608 0.98634,-0.07359 1.96952,-0.214388 2.95025,-0.351181 0.97115,-0.13599 1.92232,-0.411982 2.92068,-0.339185 0.99511,0.07279 1.70869,0.829561 1.64069,1.762316 -0.0431,0.590371 -0.31439,1.096746 -0.70637,1.529525 -1.85191,2.043104 -4.17657,3.281443 -6.83563,3.891813 -1.01037,0.23199 -2.05192,0.351185 -3.08629,0.447981 -0.88073,0.0816 -1.77271,0.09519 -2.65665,0.0624 -0.64957,-0.024 -1.29355,-0.172793 -1.95752,-0.268789 -0.0672,0.607172 -0.13039,1.239942 -0.20718,1.870313 l -0.30958,2.418282 c -0.0936,0.766362 -0.1664,1.535926 -0.2632,2.302289 -0.0944,0.743964 -0.21197,1.483928 -0.31118,2.227093 -0.0919,0.691967 -0.16,1.387933 -0.26399,2.079099 -0.15758,1.059149 -0.30878,2.1207 -0.51597,3.171848 -0.24798,1.255939 -0.62716,2.471882 -1.24874,3.605426 -0.75677,1.383134 -1.82951,2.436684 -3.19583,3.216646 -1.407938,0.80396 -2.947857,1.222342 -4.506987,1.572724 -1.105551,0.248789 -2.242289,0.288786 -3.361436,0.187191 -1.939903,-0.175195 -3.59582,-1.004753 -4.847762,-2.509481 -1.194342,-1.435936 -2.003102,-3.080657 -2.291891,-4.943766 -0.139186,-0.88556 -0.238389,-1.778317 -0.316782,-2.671074 -0.0896,-0.994351 -0.148794,-1.989505 -0.195192,-2.985456 z m 2.180696,-12.762586 c 0.012,0.663969 -0.05681,1.327937 -0.0536,1.991904 0.01354,3.090253 0.03601,6.181304 0.0624,9.272354 0.0048,0.504775 0.02961,1.011151 0.06559,1.515127 0.07601,1.05595 0.151193,2.1127 0.253588,3.165448 0.07359,0.747964 0.173593,1.493529 0.291187,2.235893 0.167991,1.050349 0.646367,1.986304 1.188749,2.881462 0.467175,0.769563 1.07594,1.422331 1.876702,1.873509 1.361532,0.765562 2.826272,0.829561 4.302993,0.547974 0.997546,-0.189592 1.978304,-0.495977 2.946259,-0.81196 0.955165,-0.311185 1.81831,-0.819163 2.54228,-1.520728 0.67916,-0.657571 1.16074,-1.459928 1.48553,-2.345487 0.62957,-1.716716 0.82715,-3.52543 1.08715,-5.318945 0.0976,-0.671967 0.18238,-1.345534 0.27118,-2.018302 0.10166,-0.765563 0.20399,-1.530327 0.30159,-2.29589 0.0736,-0.571173 0.13919,-1.141546 0.20878,-1.711917 0.0999,-0.81916 0.20478,-1.637522 0.29999,-2.456682 0.0727,-0.63357 0.1336,-1.269539 0.1992,-1.904709 0.0831,-0.811961 0.17199,-1.621523 0.24478,-2.435082 0.0545,-0.61597 0.032,-1.24394 0.1416,-1.84951 0.20079,-1.109548 0.72557,-2.053502 1.70951,-2.664673 0.41117,-0.254387 0.87676,-0.422379 1.33274,-0.63837 l -0.0785,-0.119196 c -0.42156,-0.547173 -0.85356,-1.085549 -1.26715,-1.639123 -0.64956,-0.868757 -1.11674,-1.837511 -1.58632,-2.811062 -0.44477,-0.923156 -0.98874,-1.796714 -1.45673,-2.70947 -0.81674,-1.591924 -1.64872,-3.179848 -2.40148,-4.801368 -0.94636,-2.039902 -1.69191,-4.150201 -1.926294,-6.409292 -0.09993,-0.955154 -0.125638,-1.910309 0.06882,-2.856662 0.309574,-1.511929 1.098334,-2.694273 2.426264,-3.505434 1.23195,-0.751963 2.60387,-0.995151 4.00941,-1.071147 0.87197,-0.04719 1.74951,-0.0088 2.65428,-0.0088 l -0.0296,-0.152794 c -0.56316,-1.177525 -1.08873,-2.375066 -1.7055,-3.523812 -0.86876,-1.622322 -1.98232,-3.084651 -3.22066,-4.442187 -0.91673,-1.003951 -1.9111,-1.935105 -2.99982,-2.759865 -1.070391,-0.810423 -2.198351,-1.534389 -3.402294,-2.12556 -1.435115,-0.706366 -2.931044,-1.25194 -4.498981,-1.599923 -1.507921,-0.334385 -3.023843,-0.539175 -4.570975,-0.555973 -1.318335,-0.0144 -2.628673,0.04639 -3.913412,0.343183 -1.939104,0.448779 -3.712621,1.24714 -5.254145,2.539878 -0.861559,0.722364 -1.614323,1.532725 -2.271091,2.435083 -0.773562,1.059948 -1.395934,2.207093 -1.928707,3.407833 -0.731165,1.648723 -1.232741,3.363039 -1.576725,5.126155 -0.171192,0.879956 -0.305585,1.765515 -0.442378,2.651072 -0.048,0.311185 -0.05121,0.627169 -0.07999,0.983152 l 0.585572,-0.304786 0.571172,-0.255985 c 1.933507,-0.88396 3.93581,-1.45273 6.087708,-1.387935 0.915154,0.0272 1.788713,0.20879 2.603074,0.609572 1.559923,0.769562 2.471881,2.077499 2.868663,3.73182 0.273586,1.142345 0.461576,2.30709 0.643968,3.469431 0.142392,0.907158 0.288785,1.823912 0.304785,2.739069 0.02321,1.337534 -0.044,2.678271 -0.116794,4.015006 -0.06159,1.139146 -0.299184,2.259892 -0.697566,3.323041 -0.723164,1.932706 -1.529526,3.834216 -2.282291,5.755723 -0.248786,0.63517 -0.439977,1.291938 -0.674367,1.990305 l 0.950356,8e-4 c 0.115187,0.0024 0.232789,0.0056 0.343983,0.032 0.864757,0.203991 1.615921,0.595971 2.231092,1.261538 0.822361,0.883159 1.25274,1.916708 1.274339,3.114252 z M 71.255235,46.83765 c -0.491175,-1.163143 -0.786361,-2.376686 -0.875157,-3.630225 -0.08319,-1.179142 0.05681,-2.351885 0.178392,-3.52623 0.116794,-1.136745 0.215989,-2.279091 0.249587,-3.419834 0.05681,-1.877511 -0.0696,-3.750221 -0.159192,-5.626129 -0.0536,-1.116747 0.07601,-2.247092 0.175192,-3.366239 0.0896,-1.007953 0.201589,-2.018303 0.392781,-3.011855 0.319183,-1.667121 0.743964,-3.31024 1.347935,-4.902964 0.571971,-1.510327 1.231141,-2.979858 2.159096,-4.303792 0.63757,-0.908757 1.359134,-1.755917 2.052701,-2.643873 l -0.206389,-0.07359 c -2.258293,-0.716771 -4.554182,-1.278343 -6.916468,-1.522333 -1.115945,-0.115993 -2.236693,-0.18319 -3.355838,-0.250388 -0.343984,-0.02 -0.692767,0.0264 -1.037552,0.05919 -0.853557,0.08239 -1.718316,0.114395 -2.558275,0.274387 -1.429531,0.271988 -2.801465,0.729566 -4.071004,1.47433 -1.140746,0.668766 -2.098299,1.531925 -2.90066,2.568676 -0.885558,1.144745 -1.483131,2.43908 -1.911109,3.818214 -0.505576,1.627922 -0.747165,3.30384 -0.81196,4.994159 -0.05681,1.482328 -0.08481,2.972659 0.17119,4.449386 0.189591,1.098347 0.316784,2.209494 0.526376,3.304641 0.286386,1.49193 0.593571,2.981456 0.948754,4.458186 0.506375,2.115099 1.013552,4.231795 1.61432,6.321296 0.574375,2.000702 1.221542,3.983809 1.925509,5.943714 0.574372,1.599122 1.23914,3.168648 1.939106,4.716573 0.455979,1.008752 1.007953,1.979903 1.587124,2.923858 0.615171,1.003152 1.315937,1.955106 2.264693,2.683072 1.199141,0.918355 2.126296,1.061549 3.345437,0.05279 0.521577,-0.43118 0.962354,-0.965554 1.416734,-1.47353 0.720763,-0.806361 1.416731,-1.636722 2.135096,-2.447082 0.914355,-1.03115 1.839912,-2.051901 2.759066,-3.079851 0.19439,-0.216791 0.382382,-0.440778 0.571173,-0.659967 L 73.897509,50.667863 C 72.757563,49.570315 71.872807,48.298378 71.255235,46.837647 Z M 105.92636,16.116731 c 0.74717,0.875955 1.47033,1.777512 2.1375,2.715067 1.29115,1.814313 2.32309,3.772619 3.08386,5.868516 0.33598,0.923958 0.60477,1.856713 0.48478,2.867065 -0.0832,0.707964 -0.0776,1.425532 -0.13918,2.137496 -0.052,0.591973 -0.1464,1.180743 -0.22241,1.771115 -0.11516,0.889556 -0.28157,1.777514 -0.33117,2.67107 -0.048,0.85116 0.003,1.710319 0.056,2.562279 0.0536,0.866357 0.17041,1.728717 0.24958,2.592675 0.0898,0.981552 0.2112,1.960706 0.2384,2.943858 0.0224,0.80636 -0.0496,1.616723 -0.11909,2.423083 -0.0841,0.970353 -0.32958,1.90951 -0.69596,2.809465 -0.25839,0.635169 -0.56637,1.24954 -0.85677,1.88471 l 0.11671,0.123187 0.1776,0.137595 0.17999,-0.319984 c 1.51034,-2.381482 2.85425,-4.854165 4.01661,-7.421241 0.75034,-1.65272 1.44953,-3.32944 2.12308,-5.015758 1.04875,-2.624674 1.87991,-5.322146 2.52067,-8.074813 0.288,-1.235139 0.50877,-2.48948 0.70398,-3.743819 0.15279,-0.980753 0.27917,-1.972705 0.30798,-2.962257 0.0297,-1.04955 -0.0278,-2.107099 -0.1248,-3.153449 -0.0727,-0.790363 -0.26802,-1.585524 -0.76239,-2.229492 -0.79674,-1.034348 -1.65589,-2.023101 -2.71263,-2.806263 -0.89036,-0.658368 -1.77832,-1.335934 -2.73267,-1.889508 -1.51432,-0.879157 -3.15344,-1.46313 -4.86615,-1.86151 -1.67273,-0.3895821 -3.36546,-0.5575741 -5.06937,-0.5935721 -1.00474,-0.0216 -2.01431,0.0864 -3.01666,0.181591 -0.908749,0.0848 -1.811914,0.230389 -2.726261,0.3503841 0.981557,0.551972 1.950313,1.043149 2.862251,1.621522 1.91991,1.215941 3.64144,2.67907 5.11656,4.410988 z M 80.983568,50.165492 c 0.61997,-1.983907 1.465528,-3.879814 2.283889,-5.785323 0.664768,-1.546326 1.027151,-3.174249 1.147946,-4.847767 0.06,-0.82476 0.044,-1.659919 0.0032,-2.487081 -0.04559,-0.918354 -0.118401,-1.84071 -0.252789,-2.750267 -0.17199,-1.163144 -0.36718,-2.327088 -0.642366,-3.468633 -0.298387,-1.23514 -1.05035,-2.095899 -2.339888,-2.413483 -0.784763,-0.192791 -1.565526,-0.184791 -2.359888,-0.05919 -1.938306,0.304786 -3.71262,1.019151 -5.365341,2.0655 -0.332784,0.210389 -0.516775,0.380782 -0.458379,0.856759 0.121583,1.011151 0.147995,2.038302 0.143194,3.058252 -0.0064,1.44393 -0.068,2.887861 -0.122392,4.330992 -0.01759,0.469577 -0.08558,0.938354 -0.136799,1.406333 -0.07679,0.716763 -0.22639,1.43273 -0.221589,2.148695 0.0048,0.737565 0.07998,1.49193 0.259188,2.206295 0.56877,2.26549 1.771913,4.118203 3.745418,5.426138 1.213542,0.804761 2.555878,1.209542 4.030206,1.287138 0.0976,-0.338384 0.187989,-0.657568 0.286388,-0.974351 z M 78.66688,30.735226 c -0.259989,-0.544775 -0.111196,-0.99675 0.490375,-1.206342 0.147195,-0.0504 0.297587,-0.106407 0.449579,-0.120787 0.210389,-0.02079 0.422379,-0.0056 0.63437,-0.0056 0.763962,0.0048 1.498326,0.111196 2.127898,0.595971 0.40478,0.311985 0.513574,0.723966 0.251187,1.149545 -0.371982,0.602371 -0.937557,0.904756 -1.633522,0.962353 -1.095147,0.0904 -1.863909,-0.41998 -2.319887,-1.375133 z m 30.37853,-0.19919 0.24879,-2.179895 c 0.0359,-0.291187 -0.11671,-0.371182 -0.36157,-0.378382 -0.77038,-0.02079 -1.53994,-0.04881 -2.3103,-0.06159 -0.86716,-0.01601 -1.71272,0.123189 -2.51588,0.452778 -0.89116,0.367183 -1.56952,0.954355 -1.84711,1.924708 -0.20718,0.723165 -0.26238,1.44553 -0.18879,2.201495 0.11114,1.152743 0.36719,2.27109 0.77036,3.343839 0.53917,1.43433 1.10235,2.86786 1.77671,4.242194 0.91276,1.859911 1.94471,3.661425 2.91428,5.493335 0.25838,0.488778 0.47757,0.999953 0.74716,1.570326 0.56557,-1.196742 0.84075,-2.395086 0.87196,-3.630226 0.0264,-1.040749 -0.056,-2.0839 -0.11685,-3.124648 -0.0376,-0.636771 -0.12801,-1.27034 -0.18959,-1.905509 -0.0856,-0.884757 -0.2168,-1.770315 -0.23759,-2.657473 -0.02,-0.902357 0.044,-1.809513 0.12076,-2.71107 0.0721,-0.862358 0.2144,-1.719116 0.31759,-2.579875 z m -1.73511,-0.699167 c -0.28639,0.789563 -0.89755,1.235941 -1.69113,1.366335 -0.73915,0.122392 -1.38712,-0.150393 -1.86871,-0.740765 -0.34316,-0.419979 -0.21199,-0.916757 0.3024,-1.201544 0.59037,-0.326383 1.23914,-0.408777 2.0047,-0.458376 0.20878,0.03761 0.52077,0.07041 0.81835,0.154393 0.43119,0.121595 0.59118,0.447977 0.43439,0.879957 z M 84.433002,54.158098 c -0.422382,-0.345582 -0.982354,-0.365581 -1.383934,0.01354 -0.499177,0.471975 -0.938354,1.011149 -1.377534,1.542325 -0.506376,0.614369 -0.983153,1.252741 -1.635922,1.728716 -0.951152,0.691968 -2.0623,0.978353 -3.177445,1.249539 -0.886358,0.215991 -1.777515,0.41678 -2.666271,0.623172 l -0.01117,0.115188 c 0.263988,0.121596 0.519175,0.274387 0.795163,0.361583 1.355934,0.428778 2.735867,0.643169 4.169398,0.521574 1.033552,-0.08879 2.019105,-0.314384 2.952658,-0.756763 1.285539,-0.608769 2.275093,-1.574323 3.115851,-2.695869 0.140793,-0.187193 0.204789,-0.463979 0.220789,-0.705566 0.05681,-0.852758 -0.375984,-1.48713 -1.001554,-1.997505 z m 24.754818,-0.369583 c -0.66478,0.223192 -1.20555,0.563175 -1.36634,1.282339 -0.1096,0.486377 -0.14959,0.989552 -0.192,1.487929 -0.009,0.088 0.10165,0.249587 0.1848,0.271988 0.51196,0.135194 1.02715,0.294385 1.55032,0.341582 0.64397,0.05838 1.29835,0.03999 1.94631,0.008 0.69918,-0.03521 1.40313,-0.08079 2.0927,-0.195991 1.62312,-0.273586 3.19505,-0.716765 4.59018,-1.63832 0.50397,-0.331985 1.00154,-0.671168 1.50232,-1.008752 l -0.0415,-0.07119 c -0.53358,0.07918 -1.06555,0.175992 -1.60153,0.232789 -1.09113,0.116795 -2.18308,0.239988 -3.27823,0.303187 -0.5288,0.03039 -1.06475,-0.0712 -1.59754,-0.114393 -0.89433,-0.0728 -1.76791,-0.271187 -2.52387,-0.749564 -0.43597,-0.275187 -0.80075,-0.305584 -1.26554,-0.149593 z"
     id="path2"
     style="clip-rule:evenodd;opacity:0.6;fill:#336791;fill-opacity:0.92000002;fill-rule:evenodd;stroke-width:0.79996151;"
     inkscape:connector-curvature="0" />
  <path
     inkscape:connector-curvature="0"
     d="m 66.566982,61.092382 c -0.102262,-0.910556 -1.164393,-1.595575 -2.082796,-1.595575 -2.968137,0 -5.602309,-1.742107 -6.707026,-4.438478 -1.127691,-2.76109 -0.400086,-5.980542 1.811308,-8.009264 0.696507,-0.636831 0.781399,-1.703164 0.197522,-2.443376 -1.519651,-1.929262 -3.246068,-3.672209 -5.131622,-5.182614 -0.737692,-0.591722 -1.821676,-0.509352 -2.461868,0.199202 -1.930662,2.13827 -5.398905,2.932837 -8.079027,1.814671 -2.787987,-1.173078 -4.547744,-3.999168 -4.374879,-7.032587 0.05687,-0.953422 -0.640191,-1.78189 -1.590254,-1.892558 -2.419841,-0.280171 -4.860976,-0.288296 -7.287822,-0.01905 -0.938014,0.103664 -1.634521,0.912519 -1.603422,1.853895 0.105064,3.00372 -1.674585,5.77994 -4.435676,6.910993 -2.647902,1.081742 -6.09205,0.29306 -8.018789,-1.826439 -0.63683,-0.698188 -1.701763,-0.783919 -2.444497,-0.204805 -1.941029,1.523292 -3.70639,3.267361 -5.240049,5.180933 -0.597606,0.743855 -0.509352,1.821954 0.193038,2.461026 2.2551,2.04217 2.982146,5.289358 1.811309,8.082669 -1.117884,2.66303 -3.882897,4.378521 -7.047996,4.378521 -1.027109,-0.03307 -1.758076,0.657004 -1.871546,1.591094 -0.2846538,2.432729 -0.2877358,4.912807 -0.01373,7.365429 0.102262,0.914479 1.195772,1.593614 2.124261,1.593614 2.821327,-0.07172 5.528344,1.673746 6.665562,4.438194 1.131611,2.761093 0.403166,5.979143 -1.81187,8.010673 -0.692865,0.63682 -0.781398,1.70064 -0.1964,2.44001 1.504241,1.91722 3.232338,3.66127 5.123497,5.18458 0.742454,0.59788 1.822234,0.51411 2.465789,-0.19529 1.938226,-2.14331 5.40591,-2.93647 8.075105,-1.81607 2.796111,1.17 4.555029,3.9958 4.383284,7.03006 -0.05631,0.95342 0.642433,1.78441 1.589133,1.89256 1.238358,0.14485 2.483162,0.21658 3.731884,0.21658 1.185127,0 2.370532,-0.0648 3.555938,-0.19669 0.939136,-0.10366 1.634521,-0.91335 1.602862,-1.85501 -0.108427,-3.00232 1.675146,-5.77881 4.432874,-6.90762 2.665553,-1.08875 6.094291,-0.29194 8.022153,1.82446 0.640191,0.69679 1.698678,0.78141 2.444496,0.20453 1.937666,-1.51937 3.699665,-3.26259 5.240048,-5.1812 0.598167,-0.74247 0.513274,-1.82196 -0.193039,-2.46216 -2.254539,-2.04076 -2.985507,-5.28935 -1.814671,-8.079863 1.100514,-2.627168 3.762704,-4.391128 6.626058,-4.391128 l 0.400645,0.01064 c 0.929609,0.07537 1.783854,-0.640473 1.896202,-1.588851 0.286055,-2.434971 0.289136,-4.912248 0.01401,-7.36571 z M 34.378352,83.36322 c -10.313955,0 -18.674555,-8.360603 -18.674555,-18.674275 0,-10.313674 8.36088,-18.674274 18.674555,-18.674274 10.313676,0 18.674554,8.3606 18.674554,18.674274 0,3.500743 -0.96519,6.775106 -2.641456,9.575142 L 42.234362,66.08672 c 0.592003,-1.395815 0.904674,-2.909021 0.904395,-4.470697 0,-3.058071 -1.19101,-5.932912 -3.353653,-8.094996 -2.162085,-2.162084 -5.036925,-3.352812 -8.094437,-3.352812 -1.020385,0 -2.036008,0.135602 -3.018569,0.403166 -0.430343,0.117392 -0.782239,0.47209 -0.896829,0.903273 -0.117111,0.440991 0.01485,0.892907 0.35946,1.237799 0,0 4.036992,4.06809 5.3877,5.418518 0.141486,0.141486 0.141206,0.479092 0.121313,0.600687 l -0.01261,0.08882 c -0.136163,1.484908 -0.398683,3.267359 -0.615256,3.952378 -0.02914,0.02886 -0.05659,0.05323 -0.08629,0.08293 -0.0311,0.0311 -0.05967,0.06108 -0.08965,0.0919 -0.693986,0.222736 -2.503894,0.488339 -4.012338,0.623381 l 2.81e-4,-0.0081 -0.06781,0.01709 c -0.01205,0.0015 -0.03446,0.0031 -0.06416,0.0031 -0.163059,0 -0.402886,-0.04567 -0.62086,-0.263361 -1.405901,-1.405901 -5.284595,-5.256858 -5.284595,-5.256858 -0.347974,-0.346853 -0.704912,-0.419697 -0.942778,-0.419697 -0.55446,0 -1.050923,0.400645 -1.20726,0.975277 -1.067733,3.951259 0.06416,8.201461 2.95469,11.092269 2.162645,2.162364 5.037765,3.353094 8.095837,3.353094 1.561677,0 3.074884,-0.312392 4.470418,-0.904394 l 8.265906,8.265873 c -2.902018,1.85698 -6.348127,2.93788 -10.048914,2.93788 z"
     id="path2597"
     style="fill:#917c6f;stroke-width:0.28017157" />
  <rect
     style="opacity:0.4;fill:#917c6f;fill-opacity:1;stroke:#3e6e94;stroke-width:0.0882242;stroke-linecap:round;stroke-linejoin:round;stroke-miterlimit:0;stroke-dasharray:none;stroke-opacity:1;paint-order:stroke fill markers"
     id="rect3194"
     width="127.91177"
     height="28.955338"
     x="0.044112101"
     y="99.000549" />
  <text
     xml:space="preserve"
     style="font-style:normal;font-weight:normal;font-size:24px;line-height:1.25;font-family:sans-serif;letter-spacing:0px;word-spacing:0px;fill:#c8c4b7;fill-opacity:1;stroke:none"
     x="4.9857016"
     y="121.28848"
     id="text3200"><tspan
       sodipodi:role="line"
       x="4.9857016"
       y="121.28848"
       id="tspan3202"
       style="font-style:normal;font-variant:normal;font-weight:bold;font-stretch:normal;font-family:sans-serif;-inkscape-font-specification:'sans-serif Bold'">DBA Tool</tspan></text>
</svg>
